<?xml version="1.0" standalone="no"?>
<!DOCTYPE svg PUBLIC "-//W3C//DTD SVG 20010904//EN"
 "http://www.w3.org/TR/2001/REC-SVG-20010904/DTD/svg10.dtd">
<svg version="1.0" xmlns="http://www.w3.org/2000/svg"
 width="332.000000pt" height="332.000000pt" viewBox="0 0 332.000000 332.000000"
 preserveAspectRatio="xMidYMid meet">
<metadata>
Created by potrace 1.14, written by Peter Selinger 2001-2017
</metadata>
<g transform="translate(0.000000,332.000000) scale(0.100000,-0.100000)"
fill="#000000" stroke="none">
<path d="M1515 3300 c-110 -3 -367 -5 -572 -5 -205 0 -365 -3 -355 -8 10 -4 3
-6 -20 -4 -20 2 -35 0 -32 -4 2 -4 -13 -10 -33 -14 -21 -4 -50 -16 -65 -26
-15 -11 -33 -17 -39 -13 -7 4 -9 3 -6 -3 8 -13 -61 -46 -76 -37 -7 4 -9 4 -6
0 3 -3 -21 -35 -55 -70 -92 -95 -106 -112 -106 -129 0 -9 -4 -18 -10 -22 -5
-3 -7 -12 -3 -20 3 -8 0 -15 -6 -15 -6 0 -11 -7 -11 -16 0 -8 -4 -13 -9 -10
-4 3 -6 -7 -4 -22 3 -23 2 -24 -6 -7 -6 12 -10 -411 -10 -1118 -1 -689 2
-1145 8 -1155 5 -10 12 -33 14 -52 3 -19 6 -36 7 -37 2 -2 3 -6 4 -10 5 -25
60 -133 67 -133 5 0 9 -6 9 -13 0 -7 14 -27 30 -45 17 -18 30 -38 30 -43 0 -6
4 -8 9 -4 5 3 13 -4 16 -16 4 -11 9 -18 12 -15 3 3 17 -6 30 -20 12 -14 23
-22 23 -19 0 3 10 -3 22 -14 11 -11 25 -18 30 -15 4 3 8 1 8 -4 0 -8 93 -52
125 -59 6 -1 21 -4 35 -8 14 -3 39 -8 55 -12 40 -9 2038 -8 2094 1 25 4 50 11
56 16 7 6 15 7 18 4 3 -3 12 -2 19 2 7 5 15 9 18 10 3 0 18 6 33 12 16 7 33
12 38 12 5 0 9 5 9 11 0 5 5 7 10 4 6 -3 13 1 16 9 3 9 10 14 14 11 5 -3 16 5
24 17 9 12 16 18 16 13 1 -6 10 1 20 14 11 13 20 20 20 15 0 -4 20 14 44 41
25 27 43 53 40 57 -3 4 2 11 10 14 9 3 16 12 16 20 0 8 5 14 11 14 5 0 7 5 4
10 -3 6 -1 10 5 10 6 0 8 5 5 10 -3 6 -1 10 5 10 6 0 8 5 5 10 -3 6 -1 10 5
10 7 0 10 6 7 14 -3 8 -2 16 4 18 9 3 16 26 24 73 2 11 8 33 14 48 8 20 11
355 11 1126 0 1156 0 1151 -44 1236 -9 17 -16 35 -16 40 0 11 -46 68 -101 126
-20 21 -34 41 -30 45 3 4 1 4 -6 0 -7 -4 -32 9 -57 28 -25 19 -55 37 -66 41
-11 3 -20 10 -20 15 0 8 -31 18 -80 26 -14 2 -43 9 -65 14 -45 11 -919 18
-1240 10z"/>
<path d="M365 3250 c-16 -7 -17 -9 -3 -9 9 -1 20 4 23 9 7 11 7 11 -20 0z"/>
<path d="M213 3154 c-9 -9 -9 -13 1 -17 20 -8 36 6 22 19 -9 8 -15 7 -23 -2z"/>
</g>
</svg>
